<svg width="109" height="97" viewBox="0 0 109 97" fill="none" xmlns="http://www.w3.org/2000/svg">
	<circle cx="48.1357" cy="48.1357" r="48.1357" fill="#E8F9FF"/>
	<path d="M106.829 73.0932H100.08V30.0032L107.459 22.6255C107.738 22.3462 107.96 22.0145 108.111 21.6494C108.263 21.2843 108.341 20.893 108.341 20.4978C108.341 20.1026 108.263 19.7113 108.111 19.3462C107.96 18.9811 107.738 18.6494 107.459 18.3701L101.972 12.8805C101.693 12.6011 101.361 12.3795 100.996 12.2283C100.631 12.0771 100.24 11.9993 99.8447 11.9993C99.4497 11.9993 99.0584 12.0771 98.6934 12.2283C98.3284 12.3795 97.9968 12.6011 97.7174 12.8805L86.6399 23.9572H32.747C31.3553 23.9588 30.0212 24.5123 29.0372 25.4963C28.0531 26.4804 27.4996 27.8145 27.498 29.2061V73.0932H20.7577C20.5588 73.0932 20.3681 73.1722 20.2274 73.3128C20.0868 73.4534 20.0078 73.6441 20.0078 73.843V76.7922C20.0092 78.1729 20.5583 79.4967 21.5346 80.473C22.511 81.4493 23.8348 81.9985 25.2155 81.9998H102.375C103.756 81.9986 105.08 81.4496 106.056 80.4733C107.033 79.497 107.582 78.1731 107.584 76.7922V73.843C107.584 73.7441 107.564 73.6462 107.526 73.5548C107.488 73.4635 107.433 73.3806 107.362 73.3109C107.292 73.2412 107.209 73.1861 107.117 73.1487C107.026 73.1113 106.928 73.0925 106.829 73.0932Z" fill="#E6E7E8"/>
	<path d="M81.7257 41.2998L70.3101 44.0352L73.041 32.6173L83.9498 21.7078H29.7471C28.5539 21.7078 27.4095 22.1818 26.5658 23.0255C25.7221 23.8693 25.248 25.0136 25.248 26.2068V70.8437H96.3335V26.6935L81.7257 41.2998Z" fill="#6DC9F7"/>
	<path d="M81.7263 41.2998L70.3107 44.0353L73.0416 32.6174L77.324 28.3342H32.0182C31.6205 28.3342 31.2391 28.4922 30.9578 28.7735C30.6766 29.0547 30.5186 29.4362 30.5186 29.8339V70.8438H91.0649V31.9635L81.7263 41.2998Z" fill="#D4FBFF"/>
	<path d="M88.8154 34.2129V70.8422H91.065V31.9634L88.8154 34.2129Z" fill="white"/>
	<path d="M17.7568 70.8438V73.7929C17.7568 74.9752 18.2265 76.1091 19.0625 76.9451C19.8985 77.7811 21.0324 78.2507 22.2147 78.2507H99.3739C99.9594 78.2508 100.539 78.1356 101.08 77.9116C101.621 77.6877 102.113 77.3593 102.527 76.9454C102.941 76.5314 103.269 76.04 103.494 75.4991C103.718 74.9582 103.833 74.3784 103.833 73.7929V70.8438H17.7568Z" fill="#0089EF"/>
	<path d="M17.7568 70.8438V73.7929C17.7568 74.9752 18.2265 76.1091 19.0625 76.9451C19.8985 77.7811 21.0324 78.2507 22.2147 78.2507H99.3739C99.9594 78.2508 100.539 78.1356 101.08 77.9116C101.621 77.6877 102.113 77.3593 102.527 76.9454C102.941 76.5314 103.269 76.04 103.494 75.4991C103.718 74.9582 103.833 74.3784 103.833 73.7929V70.8438H17.7568Z" fill="#0089EF"/>
	<path d="M46.5068 70.8438V72.3367C46.5068 72.9351 46.7446 73.509 47.1677 73.9321C47.5908 74.3553 48.1647 74.593 48.7631 74.593H72.8205C73.4189 74.593 73.9928 74.3553 74.4159 73.9321C74.839 73.509 75.0767 72.9351 75.0767 72.3367V70.8438H46.5068Z" fill="#6DC9F7"/>
	<path d="M59.9081 39.5361H54.8016C54.6027 39.5361 54.412 39.4571 54.2714 39.3164C54.1308 39.1758 54.0518 38.9851 54.0518 38.7862C54.0518 38.5874 54.1308 38.3966 54.2714 38.256C54.412 38.1154 54.6027 38.0364 54.8016 38.0364H59.9081C60.1069 38.0364 60.2977 38.1154 60.4383 38.256C60.5789 38.3966 60.6579 38.5874 60.6579 38.7862C60.6579 38.9851 60.5789 39.1758 60.4383 39.3164C60.2977 39.4571 60.1069 39.5361 59.9081 39.5361Z" fill="#FA759E"/>
	<path d="M50.3015 39.5361H39.1805C38.9816 39.5361 38.7909 39.4571 38.6503 39.3164C38.5097 39.1758 38.4307 38.9851 38.4307 38.7862C38.4307 38.5874 38.5097 38.3966 38.6503 38.256C38.7909 38.1154 38.9816 38.0364 39.1805 38.0364H50.3015C50.5004 38.0364 50.6911 38.1154 50.8317 38.256C50.9723 38.3966 51.0513 38.5874 51.0513 38.7862C51.0513 38.9851 50.9723 39.1758 50.8317 39.3164C50.6911 39.4571 50.5004 39.5361 50.3015 39.5361Z" fill="#FA759E"/>
	<path d="M81.7262 41.2996L70.3105 44.0351L73.0415 32.6171L95.2474 10.4104C95.6712 9.98692 96.2459 9.74902 96.845 9.74902C97.4441 9.74902 98.0187 9.98692 98.4425 10.4104L103.933 15.9008C104.356 16.3245 104.594 16.899 104.594 17.498C104.594 18.097 104.356 18.6715 103.933 19.0952L81.7262 41.2996Z" fill="#FFD7E5"/>
	<path d="M81.7257 41.2996L73.041 32.6171L95.247 10.4104C95.6708 9.98692 96.2454 9.74902 96.8445 9.74902C97.4437 9.74902 98.0183 9.98692 98.4421 10.4104L103.932 15.9008C104.356 16.3245 104.594 16.899 104.594 17.498C104.594 18.097 104.356 18.6715 103.932 19.0952L81.7257 41.2996Z" fill="#FA759E"/>
	<path d="M101.815 21.209L103.929 19.0952C104.353 18.6715 104.59 18.097 104.59 17.498C104.59 16.899 104.353 16.3245 103.929 15.9008L98.441 10.4104C98.0172 9.98692 97.4426 9.74902 96.8434 9.74902C96.2443 9.74902 95.6697 9.98692 95.2459 10.4104L93.1328 12.5243L101.815 21.209Z" fill="#0089EF"/>
	<path d="M30.5184 62.9582C30.7173 62.9582 30.908 62.8792 31.0486 62.7386C31.1892 62.5979 31.2682 62.4072 31.2682 62.2083V54.9596C31.2682 54.7607 31.1892 54.57 31.0486 54.4293C30.908 54.2887 30.7173 54.2097 30.5184 54.2097C30.3195 54.2097 30.1288 54.2887 29.9882 54.4293C29.8476 54.57 29.7686 54.7607 29.7686 54.9596V62.2083C29.7686 62.4072 29.8476 62.5979 29.9882 62.7386C30.1288 62.8792 30.3195 62.9582 30.5184 62.9582Z" fill="#3A2C60"/>
	<path d="M103.829 70.0938H97.0806V27.0046L104.459 19.6261C105.023 19.0617 105.34 18.2964 105.34 17.4985C105.34 16.7005 105.023 15.9352 104.459 15.3708L98.9717 9.88114C98.6925 9.60179 98.3609 9.38019 97.9959 9.229C97.631 9.07782 97.2398 9 96.8448 9C96.4498 9 96.0586 9.07782 95.6937 9.229C95.3287 9.38019 94.9972 9.60179 94.7179 9.88114L83.6396 20.9579H29.7474C28.3558 20.9595 27.0216 21.513 26.0376 22.497C25.0536 23.481 24.5001 24.8152 24.4985 26.2068V70.0938H17.7498C17.551 70.0938 17.3602 70.1728 17.2196 70.3134C17.079 70.4541 17 70.6448 17 70.8437V73.7928C17.0016 75.1736 17.5509 76.4974 18.5273 77.4737C19.5038 78.45 20.8276 78.9991 22.2084 79.0005H99.3677C100.748 78.9991 102.072 78.45 103.049 77.4737C104.025 76.4974 104.575 75.1736 104.576 73.7928V70.8437C104.576 70.6453 104.498 70.455 104.358 70.3145C104.218 70.174 104.028 70.0946 103.829 70.0938ZM95.5809 70.0938H91.8107V32.2738L95.5809 28.5043V70.0938ZM73.3397 42.5392L71.8063 41.005L73.456 34.0952L80.2466 40.885L73.3397 42.5392ZM81.726 40.2417L74.1016 32.6172L93.1342 13.5846L100.759 21.2091L81.726 40.2417ZM95.7781 10.9407C96.0655 10.6663 96.4475 10.5133 96.8448 10.5133C97.2421 10.5133 97.6241 10.6663 97.9115 10.9407L103.403 16.431C103.685 16.7143 103.844 17.0982 103.844 17.4985C103.844 17.8987 103.685 18.2826 103.403 18.5659L101.816 20.1488L94.1945 12.5243L95.7781 10.9407ZM25.9982 26.2068C25.9994 25.2128 26.3947 24.2599 27.0976 23.557C27.8005 22.8541 28.7534 22.4588 29.7474 22.4576H82.1399L77.0132 27.5843H32.0179C31.4213 27.5843 30.8491 27.8213 30.4273 28.2431C30.0054 28.665 29.7684 29.2372 29.7684 29.8338V52.21C29.7684 52.4089 29.8474 52.5996 29.988 52.7402C30.1286 52.8808 30.3194 52.9598 30.5182 52.9598C30.7171 52.9598 30.9078 52.8808 31.0485 52.7402C31.1891 52.5996 31.2681 52.4089 31.2681 52.21V29.8338C31.2681 29.6349 31.3471 29.4442 31.4877 29.3036C31.6283 29.163 31.8191 29.084 32.0179 29.084H75.5135L72.5104 32.0833C72.4257 32.1681 70.2901 40.9368 69.7202 43.2816H65.6733C65.4744 43.2816 65.2837 43.3606 65.1431 43.5012C65.0025 43.6418 64.9235 43.8325 64.9235 44.0314C64.9235 44.2303 65.0025 44.421 65.1431 44.5616C65.2837 44.7023 65.4744 44.7813 65.6733 44.7813H70.3104C70.3689 44.7812 70.4273 44.7744 70.4843 44.761L81.9007 42.0278C82.0354 41.9954 82.1584 41.9264 82.2562 41.8284L90.3148 33.7698V70.0938H31.2681V64.7077C31.2681 64.5088 31.1891 64.3181 31.0485 64.1775C30.9078 64.0368 30.7171 63.9578 30.5182 63.9578C30.3194 63.9578 30.1286 64.0368 29.988 64.1775C29.8474 64.3181 29.7684 64.5088 29.7684 64.7077V70.0938H25.9982V26.2068ZM103.082 73.7913C103.081 74.7745 102.69 75.7171 101.995 76.4122C101.299 77.1074 100.357 77.4983 99.3737 77.4993H22.2122C21.229 77.4983 20.2864 77.1074 19.5911 76.4122C18.8958 75.7171 18.5046 74.7745 18.5034 73.7913V71.5935H103.079L103.082 73.7913Z" fill="#3A2C60"/>
	<path d="M42.9305 44.7851H61.8012C62 44.7851 62.1908 44.7061 62.3314 44.5655C62.472 44.4248 62.551 44.2341 62.551 44.0352C62.551 43.8364 62.472 43.6456 62.3314 43.505C62.1908 43.3644 62 43.2854 61.8012 43.2854H42.9305C42.7316 43.2854 42.5409 43.3644 42.4003 43.505C42.2597 43.6456 42.1807 43.8364 42.1807 44.0352C42.1807 44.2341 42.2597 44.4248 42.4003 44.5655C42.5409 44.7061 42.7316 44.7851 42.9305 44.7851Z" fill="#3A2C60"/>
	<path d="M55.9922 49.284C55.9922 49.4829 56.0712 49.6736 56.2118 49.8142C56.3524 49.9549 56.5432 50.0339 56.742 50.0339H82.4033C82.6022 50.0339 82.7929 49.9549 82.9335 49.8142C83.0741 49.6736 83.1531 49.4829 83.1531 49.284C83.1531 49.0852 83.0741 48.8944 82.9335 48.7538C82.7929 48.6132 82.6022 48.5342 82.4033 48.5342H56.742C56.5432 48.5342 56.3524 48.6132 56.2118 48.7538C56.0712 48.8944 55.9922 49.0852 55.9922 49.284Z" fill="#3A2C60"/>
	<path d="M42.9305 50.0339H52.1769C52.3757 50.0339 52.5665 49.9549 52.7071 49.8142C52.8477 49.6736 52.9267 49.4829 52.9267 49.284C52.9267 49.0852 52.8477 48.8944 52.7071 48.7538C52.5665 48.6132 52.3757 48.5342 52.1769 48.5342H42.9305C42.7316 48.5342 42.5409 48.6132 42.4003 48.7538C42.2597 48.8944 42.1807 49.0852 42.1807 49.284C42.1807 49.4829 42.2597 49.6736 42.4003 49.8142C42.5409 49.9549 42.7316 50.0339 42.9305 50.0339Z" fill="#3A2C60"/>
	<path d="M42.9305 55.2829H82.4039C82.6028 55.2829 82.7935 55.2039 82.9342 55.0633C83.0748 54.9226 83.1538 54.7319 83.1538 54.533C83.1538 54.3342 83.0748 54.1435 82.9342 54.0028C82.7935 53.8622 82.6028 53.7832 82.4039 53.7832H42.9305C42.7316 53.7832 42.5409 53.8622 42.4003 54.0028C42.2597 54.1435 42.1807 54.3342 42.1807 54.533C42.1807 54.7319 42.2597 54.9226 42.4003 55.0633C42.5409 55.2039 42.7316 55.2829 42.9305 55.2829Z" fill="#3A2C60"/>
	<path d="M59.9075 60.5319H52.1766C51.9777 60.5319 51.787 60.4529 51.6464 60.3123C51.5058 60.1717 51.4268 59.9809 51.4268 59.7821C51.4268 59.5832 51.5058 59.3925 51.6464 59.2519C51.787 59.1112 51.9777 59.0322 52.1766 59.0322H59.9075C60.1064 59.0322 60.2971 59.1112 60.4377 59.2519C60.5784 59.3925 60.6574 59.5832 60.6574 59.7821C60.6574 59.9809 60.5784 60.1717 60.4377 60.3123C60.2971 60.4529 60.1064 60.5319 59.9075 60.5319Z" fill="#FA759E"/>
	<path d="M49.1767 60.5319H39.1805C38.9816 60.5319 38.7909 60.4529 38.6503 60.3123C38.5097 60.1717 38.4307 59.9809 38.4307 59.7821C38.4307 59.5832 38.5097 59.3925 38.6503 59.2519C38.7909 59.1112 38.9816 59.0322 39.1805 59.0322H49.1767C49.3756 59.0322 49.5663 59.1112 49.7069 59.2519C49.8476 59.3925 49.9266 59.5832 49.9266 59.7821C49.9266 59.9809 49.8476 60.1717 49.7069 60.3123C49.5663 60.4529 49.3756 60.5319 49.1767 60.5319Z" fill="#FA759E"/>
</svg>