<svg width="97" height="97" viewBox="0 0 97 97" fill="none" xmlns="http://www.w3.org/2000/svg">
	<circle cx="48.1357" cy="48.1357" r="48.1357" fill="#E8F9FF"/>
	<path d="M93.6671 47.373H78.5109V15.6672C78.5109 14.5644 77.6135 13.667 76.5107 13.667H43.2361C43.0588 13.667 42.8894 13.737 42.7648 13.8623L24.8963 31.7301C24.753 31.8548 24.667 32.0375 24.667 32.2335V82.9551C24.667 84.0579 25.5644 84.9553 26.6672 84.9553H93.6664C95.5046 84.9553 97.0001 83.4598 97.0001 81.6216V50.7066C97.0007 48.8691 95.5052 47.373 93.6671 47.373Z" fill="#E6E7E8"/>
	<path d="M48.1672 78.9549V48.0399C48.1672 46.5671 49.3613 45.373 50.8341 45.373H75.1765V13.0005C75.1765 12.2637 74.5798 11.667 73.843 11.667H40.5684L22.6673 29.5681L22.666 29.5667V80.289C22.666 81.0258 23.2627 81.6225 23.9995 81.6225H50.8334C49.3613 81.6218 48.1672 80.4277 48.1672 78.9549Z" fill="#FFD7E5"/>
	<path d="M46.2832 19.2837H67.4513V40.6284H46.2832V19.2837Z" fill="#D4FBFF"/>
	<path d="M40.5671 11.667L40.5684 11.6683V28.2346C40.5684 28.9714 39.9717 29.5681 39.235 29.5681H22.666L40.5671 11.667Z" fill="#FA759E"/>
	<path d="M91.0002 81.6217H50.8349C49.3621 81.6217 48.168 80.4276 48.168 78.9548V48.0397C48.168 46.5669 49.3621 45.3728 50.8349 45.3728H91.0002C92.473 45.3728 93.6671 46.5669 93.6671 48.0397V78.9548C93.6671 80.4276 92.4736 81.6217 91.0002 81.6217Z" fill="#D4FBFF"/>
	<path d="M91.0002 45.3728H50.8349C49.3621 45.3728 48.168 46.5669 48.168 48.0397V50.0399C48.168 48.5671 49.3621 47.373 50.8349 47.373H91.0002C92.473 47.373 93.6671 48.5671 93.6671 50.0399V48.0397C93.6671 46.5669 92.4736 45.3728 91.0002 45.3728Z" fill="white"/>
	<path d="M91.0002 81.6216H50.8349C49.3621 81.6216 48.168 80.4275 48.168 78.9547V73.2041H93.6671V78.9547C93.6671 80.4275 92.4736 81.6216 91.0002 81.6216Z" fill="#6DC9F7"/>
	<path d="M87.5553 77.9458H54.28C53.9113 77.9458 53.6133 77.6471 53.6133 77.279C53.6133 76.911 53.9113 76.6123 54.28 76.6123H87.5553C87.924 76.6123 88.222 76.911 88.222 77.279C88.222 77.6471 87.924 77.9458 87.5553 77.9458Z" fill="#0089EF"/>
	<path d="M86.5581 79.0835C87.5545 79.0835 88.3623 78.2757 88.3623 77.2793C88.3623 76.2829 87.5545 75.4751 86.5581 75.4751C85.5617 75.4751 84.7539 76.2829 84.7539 77.2793C84.7539 78.2757 85.5617 79.0835 86.5581 79.0835Z" fill="#FA759E"/>
	<path d="M65.4854 65.5467V53.9775C65.4854 53.2081 66.3381 52.7447 66.9835 53.1634L75.9077 58.948C76.4978 59.3307 76.4978 60.1941 75.9077 60.5768L66.9835 66.3614C66.3381 66.7801 65.4854 66.3167 65.4854 65.5467Z" fill="#0089EF"/>
	<path d="M46.2829 18.6167C45.9142 18.6167 45.6162 18.9154 45.6162 19.2834V40.6282C45.6162 40.9962 45.9142 41.2949 46.2829 41.2949H67.4503C67.819 41.2949 68.1171 40.9962 68.1171 40.6282V19.2834C68.1171 18.9154 67.819 18.6167 67.4503 18.6167H46.2829ZM66.7836 19.9502V31.9747L63.8487 29.4504C63.5973 29.2344 63.2246 29.2357 62.9746 29.4544L59.4596 32.5314L54.1297 27.6042C53.8957 27.3889 53.5443 27.3682 53.287 27.5529L46.9497 32.1247V19.9502H66.7836ZM46.9497 39.9615V33.7688L53.625 28.9537L58.9949 33.9175C59.2449 34.1482 59.6296 34.1542 59.8863 33.9295L63.4179 30.8386L66.7843 33.7342V39.9621H46.9497V39.9615Z" fill="#3A2C60"/>
	<path d="M58.9905 27.841C60.5293 27.841 61.7814 26.5896 61.7814 25.0508C61.7814 23.512 60.5293 22.2605 58.9905 22.2605C57.4517 22.2605 56.2002 23.512 56.2002 25.0508C56.2002 26.5896 57.4517 27.841 58.9905 27.841ZM58.9905 23.594C59.7939 23.594 60.4479 24.2474 60.4479 25.0508C60.4479 25.8542 59.7945 26.5076 58.9905 26.5076C58.1877 26.5076 57.5337 25.8542 57.5337 25.0508C57.5337 24.2474 58.1871 23.594 58.9905 23.594Z" fill="#3A2C60"/>
	<path d="M44.174 60.6177H30.1726C29.8039 60.6177 29.5059 60.9164 29.5059 61.2844C29.5059 61.6524 29.8039 61.9511 30.1726 61.9511H44.174C44.5427 61.9511 44.8407 61.6524 44.8407 61.2844C44.8407 60.9164 44.5427 60.6177 44.174 60.6177Z" fill="#3A2C60"/>
	<path d="M44.174 53.9502H30.1726C29.8039 53.9502 29.5059 54.2489 29.5059 54.6169C29.5059 54.985 29.8039 55.2837 30.1726 55.2837H44.174C44.5427 55.2837 44.8407 54.985 44.8407 54.6169C44.8407 54.2489 44.5427 53.9502 44.174 53.9502Z" fill="#3A2C60"/>
	<path d="M44.174 47.283H30.1726C29.8039 47.283 29.5059 47.5817 29.5059 47.9497C29.5059 48.3177 29.8039 48.6164 30.1726 48.6164H44.174C44.5427 48.6164 44.8407 48.3177 44.8407 47.9497C44.8407 47.5817 44.5427 47.283 44.174 47.283Z" fill="#3A2C60"/>
	<path d="M44.174 67.2847H30.1726C29.8039 67.2847 29.5059 67.5834 29.5059 67.9514C29.5059 68.3194 29.8039 68.6181 30.1726 68.6181H44.174C44.5427 68.6181 44.8407 68.3194 44.8407 67.9514C44.8407 67.5834 44.5427 67.2847 44.174 67.2847Z" fill="#3A2C60"/>
	<path d="M44.174 73.9521H30.1726C29.8039 73.9521 29.5059 74.2508 29.5059 74.6189C29.5059 74.9869 29.8039 75.2856 30.1726 75.2856H44.174C44.5427 75.2856 44.8407 74.9869 44.8407 74.6189C44.8407 74.2508 44.5427 73.9521 44.174 73.9521Z" fill="#3A2C60"/>
	<path d="M75.1775 22.905C74.8088 22.905 74.5107 23.2037 74.5107 23.5718V29.567C74.5107 29.935 74.8088 30.2337 75.1775 30.2337C75.5462 30.2337 75.8442 29.935 75.8442 29.567V23.5718C75.8442 23.2037 75.5462 22.905 75.1775 22.905Z" fill="#3A2C60"/>
	<path d="M65.6738 66.9856C65.9185 67.1183 66.1878 67.1843 66.4559 67.1843C66.7666 67.1843 67.0759 67.0963 67.3459 66.9209L76.2708 61.1357C76.7382 60.833 77.0169 60.3189 77.0176 59.7622C77.0176 59.2055 76.7382 58.6914 76.2708 58.3874L67.3459 52.6035C66.8426 52.2761 66.2025 52.2521 65.6738 52.5382C65.1464 52.8249 64.8184 53.3763 64.8184 53.977V65.5468C64.8184 66.1475 65.1457 66.6989 65.6738 66.9856ZM66.1518 53.9776C66.1518 53.821 66.2512 53.743 66.3105 53.711C66.3438 53.693 66.3952 53.6723 66.4572 53.6723C66.5065 53.6723 66.5625 53.6856 66.6205 53.7236L75.5454 59.5075C75.6661 59.5855 75.6841 59.7015 75.6841 59.7629C75.6834 59.8242 75.6661 59.9396 75.5454 60.0176L66.6205 65.8028C66.4885 65.8881 66.3698 65.8461 66.3105 65.8148C66.2512 65.7828 66.1518 65.7048 66.1518 65.5481V53.9776Z" fill="#3A2C60"/>
	<path d="M91.0001 44.706H75.8446V32.4061C75.8446 32.0381 75.5466 31.7394 75.1779 31.7394C74.8092 31.7394 74.5111 32.0381 74.5111 32.4061V44.706H50.8348C48.9966 44.706 47.5012 46.2014 47.5012 48.0396V78.9546C47.5012 79.708 47.7619 80.3961 48.1852 80.9548H24.0002C23.6322 80.9548 23.3335 80.6555 23.3335 80.2881V30.2345H39.2357C40.3385 30.2345 41.2359 29.3371 41.2359 28.2344V12.3335H73.8444C74.2124 12.3335 74.5111 12.6328 74.5111 13.0002V20.6169C74.5111 20.985 74.8092 21.2837 75.1779 21.2837C75.5466 21.2837 75.8446 20.985 75.8446 20.6169V13.0002C75.8446 11.8974 74.9472 11 73.8444 11H40.5691C40.3918 11 40.2224 11.07 40.0978 11.1954L22.232 29.0604C22.0873 29.1851 22 29.3685 22 29.5658V80.2881C22 81.3909 22.8974 82.2883 24.0002 82.2883H50.8348H91.0001C92.8383 82.2883 94.3337 80.7928 94.3337 78.9546V48.0396C94.3337 46.2014 92.8383 44.706 91.0001 44.706ZM39.2357 28.9011H24.2776L39.9024 13.2762V28.2344C39.9024 28.6017 39.6031 28.9011 39.2357 28.9011ZM50.8348 46.0394H91.0001C92.1029 46.0394 93.0003 46.9368 93.0003 48.0396V72.538H48.8346V48.0396C48.8346 46.9368 49.732 46.0394 50.8348 46.0394ZM91.0001 80.9548H50.8348C49.732 80.9548 48.8346 80.0574 48.8346 78.9546V73.8708H93.0003V78.9546C93.0003 80.0581 92.1035 80.9548 91.0001 80.9548Z" fill="#3A2C60"/>
</svg>