<svg width="106" height="97" viewBox="0 0 106 97" fill="none" xmlns="http://www.w3.org/2000/svg">
	<circle cx="48.1357" cy="48.1357" r="48.1357" fill="#E8F9FF"/>
	<path d="M99.0481 53.1269H90.1793V50.0934C90.1793 47.9206 88.4109 46.1522 86.2381 46.1522H80.5393V15.4395C80.5393 14.3282 79.6349 13.4238 78.5236 13.4238H44.9917C44.813 13.4238 44.6423 13.4944 44.5167 13.6207L26.5131 31.6249C26.3673 31.7506 26.2793 31.9353 26.2793 32.1342V83.2471C26.2793 84.3584 27.1836 85.2627 28.2949 85.2627H97.0042C98.8566 85.2627 100.364 83.7557 100.364 81.9034V65.7441C101.564 65.2308 102.407 64.0395 102.407 62.6541V56.4863C102.407 54.634 100.9 53.1269 99.0481 53.1269ZM80.5393 53.1269V50.7653H84.1942C84.725 50.7653 85.1577 51.198 85.1577 51.7288V53.1269H80.5393Z" fill="#E6E7E8"/>
	<path d="M24.265 29.4481L42.3042 11.4089H75.8355C76.5779 11.4089 77.1792 12.0103 77.1792 12.7527V80.5596C77.1792 81.3021 76.5779 81.9034 75.8355 81.9034H25.6074C24.865 81.9034 24.2637 81.3021 24.2637 80.5596V29.4468L24.265 29.4481Z" fill="#FFD7E5"/>
	<path d="M42.3028 11.4089L42.3042 11.4103V28.1044C42.3042 28.8468 41.7029 29.4481 40.9604 29.4481H24.2637L42.3028 11.4089Z" fill="#FA759E"/>
	<path d="M96.3601 62.6545H58.0633C57.8402 62.6545 57.6266 62.6196 57.4189 62.5679V79.2163C57.4189 80.7004 58.6223 81.9038 60.1064 81.9038H94.3163C95.8005 81.9038 97.0038 80.7004 97.0038 79.2163V62.5679C96.7969 62.6189 96.5832 62.6545 96.3601 62.6545Z" fill="#0089EF"/>
	<path d="M96.3604 51.1113H58.0635C56.5793 51.1113 55.376 52.3147 55.376 53.7988V59.9666C55.376 61.4508 56.5793 62.6541 58.0635 62.6541H96.3604C97.8445 62.6541 99.0479 61.4508 99.0479 59.9666V53.7988C99.0479 52.3147 97.8445 51.1113 96.3604 51.1113Z" fill="#6DC9F7"/>
	<path d="M96.3604 51.1113H58.0635C56.5793 51.1113 55.376 52.3147 55.376 53.7988V55.8145C55.376 54.3303 56.5793 53.127 58.0635 53.127H96.3604C97.8445 53.127 99.0479 54.3303 99.0479 55.8145V53.7988C99.0479 52.3147 97.8445 51.1113 96.3604 51.1113Z" fill="white"/>
	<path d="M67.6045 47.4068V51.1115H71.2823V49.0415C71.2823 48.1385 72.014 47.4068 72.917 47.4068H81.5063C82.4093 47.4068 83.1409 48.1385 83.1409 49.0415V51.1115H86.8188V47.4068C86.8188 45.6008 85.3548 44.1375 83.5494 44.1375H70.8745C69.0685 44.1375 67.6045 45.6008 67.6045 47.4068Z" fill="#D4FBFF"/>
	<path d="M67.3298 64.4648H63.7984C62.8834 64.4648 62.1416 63.7231 62.1416 62.808V62.5318C62.1416 61.6167 62.8834 60.875 63.7984 60.875H67.3298C68.2449 60.875 68.9867 61.6167 68.9867 62.5318V62.808C68.9873 63.7231 68.2449 64.4648 67.3298 64.4648Z" fill="#D4FBFF"/>
	<path d="M90.6247 64.4648H87.0934C86.1783 64.4648 85.4365 63.7231 85.4365 62.808V62.5318C85.4365 61.6167 86.1783 60.875 87.0934 60.875H90.6247C91.5398 60.875 92.2816 61.6167 92.2816 62.5318V62.808C92.2816 63.7231 91.5398 64.4648 90.6247 64.4648Z" fill="#D4FBFF"/>
	<path d="M46.666 31.5764H50.6838V36.1814H46.666V31.5764Z" fill="#6DC9F7"/>
	<path d="M53.4336 26.561H57.4514V36.1816H53.4336V26.561Z" fill="#0089EF"/>
	<path d="M60.2012 28.7996H64.219V36.1815H60.2012V28.7996Z" fill="#6DC9F7"/>
	<path d="M66.9688 23.5154H70.9866V36.1816H66.9688V23.5154Z" fill="#0089EF"/>
	<path d="M48.6748 27.4338C49.4169 27.4338 50.0186 26.8322 50.0186 26.0901C50.0186 25.348 49.4169 24.7463 48.6748 24.7463C47.9327 24.7463 47.3311 25.348 47.3311 26.0901C47.3311 26.8322 47.9327 27.4338 48.6748 27.4338Z" fill="#6DC9F7"/>
	<path d="M55.4434 21.3433C56.1855 21.3433 56.7871 20.7416 56.7871 19.9995C56.7871 19.2574 56.1855 18.6558 55.4434 18.6558C54.7012 18.6558 54.0996 19.2574 54.0996 19.9995C54.0996 20.7416 54.7012 21.3433 55.4434 21.3433Z" fill="#0089EF"/>
	<path d="M62.21 24.7471C62.9521 24.7471 63.5537 24.1455 63.5537 23.4033C63.5537 22.6612 62.9521 22.0596 62.21 22.0596C61.4678 22.0596 60.8662 22.6612 60.8662 23.4033C60.8662 24.1455 61.4678 24.7471 62.21 24.7471Z" fill="#6DC9F7"/>
	<path d="M68.9775 18.5671C69.7197 18.5671 70.3213 17.9655 70.3213 17.2234C70.3213 16.4813 69.7197 15.8796 68.9775 15.8796C68.2354 15.8796 67.6338 16.4813 67.6338 17.2234C67.6338 17.9655 68.2354 18.5671 68.9775 18.5671Z" fill="#0089EF"/>
	<path d="M37.7949 61.0966C38.7913 61.4265 39.8556 61.6079 40.9628 61.6079C46.5286 61.6079 51.0409 57.0956 51.0409 51.5298H40.9628L37.7949 61.0966Z" fill="#D4FBFF"/>
	<path d="M40.9629 41.4509C35.3971 41.4509 30.8848 45.9632 30.8848 51.5291C30.8848 55.9876 33.7819 59.7676 37.795 61.0959L40.9629 51.5291V41.4509Z" fill="#0089EF"/>
	<path d="M40.9629 41.4509V51.5291H51.041C51.041 45.9632 46.5287 41.4509 40.9629 41.4509Z" fill="#FA759E"/>
	<path d="M24.2646 50.0157C24.6362 50.0157 24.9365 49.7154 24.9365 49.3438V42.7937C24.9365 42.4222 24.6362 42.1218 24.2646 42.1218C23.8931 42.1218 23.5928 42.4222 23.5928 42.7937V49.3438C23.5928 49.7154 23.8931 50.0157 24.2646 50.0157Z" fill="#3A2C60"/>
	<path d="M96.3606 50.4395H87.4918V47.4067C87.4918 45.2338 85.7234 43.4654 83.5506 43.4654H77.8517V12.7527C77.8517 11.6414 76.9474 10.7371 75.8361 10.7371H42.3042C42.1255 10.7371 41.9548 10.8076 41.8292 10.9339L23.8256 28.9375C23.6798 29.0631 23.5918 29.2479 23.5918 29.4468V39.9206C23.5918 40.2922 23.8921 40.5925 24.2637 40.5925C24.6352 40.5925 24.9355 40.2922 24.9355 39.9206V30.12H40.9604C42.0717 30.12 42.9761 29.2156 42.9761 28.1044V12.0808H75.8354C76.2063 12.0808 76.5073 12.3818 76.5073 12.7527V43.4654H70.8743C68.7015 43.4654 66.9331 45.2338 66.9331 47.4067V50.4395H58.0644C56.212 50.4395 54.705 51.9465 54.705 53.7989V59.9667C54.705 61.3521 55.5482 62.5433 56.7482 63.056V79.2159C56.7482 79.9751 57.0109 80.6685 57.4375 81.2315H25.6081C25.2372 81.2315 24.9362 80.9305 24.9362 80.5596V52.3496C24.9362 51.9781 24.6359 51.6778 24.2643 51.6778C23.8928 51.6778 23.5925 51.9781 23.5925 52.3496V80.559C23.5925 81.6703 24.4968 82.5746 25.6081 82.5746H94.3181C96.1704 82.5746 97.6774 81.0676 97.6774 79.2152V63.056C98.8774 62.5426 99.7206 61.3514 99.7206 59.9667V53.7989C99.7199 51.9465 98.2129 50.4395 96.3606 50.4395ZM40.9604 28.7762H25.8876L41.633 13.0308V28.1044C41.6323 28.4746 41.3313 28.7762 40.9604 28.7762ZM68.2762 47.4067C68.2762 45.9742 69.4412 44.8092 70.8737 44.8092H83.5499C84.9824 44.8092 86.1474 45.9742 86.1474 47.4067V50.4395H83.8126V49.0413C83.8126 47.7695 82.7779 46.7348 81.5054 46.7348H72.9175C71.6456 46.7348 70.611 47.7695 70.611 49.0413V50.4395H68.2762V47.4067ZM77.8511 50.4395V48.0785H81.5061C82.0369 48.0785 82.4695 48.5105 82.4695 49.0413V50.4395H77.8511ZM71.9547 50.4395V49.0413C71.9547 48.5105 72.3867 48.0785 72.9175 48.0785H76.508V50.4395H71.9547ZM96.333 79.2159C96.333 80.3272 95.4287 81.2315 94.3174 81.2315H60.1069C58.9956 81.2315 58.0912 80.3272 58.0912 79.2159V63.3254H61.5326C61.7691 64.3607 62.6929 65.1368 63.7988 65.1368H67.3302C68.4361 65.1368 69.3599 64.3601 69.5971 63.3254H84.8278C85.0643 64.3607 85.9888 65.1368 87.0947 65.1368H90.6261C91.732 65.1368 92.6552 64.3601 92.8923 63.3254H96.3337V79.2159H96.333ZM62.8145 62.808V62.5319C62.8145 61.9883 63.2559 61.5469 63.7995 61.5469H67.3309C67.8744 61.5469 68.3165 61.9883 68.3165 62.5319V62.808C68.3165 63.3516 67.8744 63.7937 67.3309 63.7937H63.7995C63.2559 63.7937 62.8145 63.3516 62.8145 62.808ZM86.1084 62.808V62.5319C86.1084 61.9883 86.5505 61.5469 87.0941 61.5469H90.6254C91.169 61.5469 91.6104 61.9883 91.6104 62.5319V62.808C91.6104 63.3516 91.169 63.7937 90.6254 63.7937H87.0941C86.5512 63.7937 86.1084 63.3516 86.1084 62.808ZM98.3762 59.966C98.3762 61.0773 97.4718 61.9816 96.3606 61.9816H92.8816C92.633 60.9631 91.7192 60.2032 90.6254 60.2032H87.0941C86.0002 60.2032 85.0865 60.9637 84.8372 61.9816H69.587C69.3384 60.9631 68.424 60.2032 67.3302 60.2032H63.7988C62.705 60.2032 61.7912 60.9637 61.5427 61.9816H58.0637C56.9524 61.9816 56.0481 61.0773 56.0481 59.966V53.7982C56.0481 52.6869 56.9524 51.7826 58.0637 51.7826H67.6043H71.2828H83.1414H86.8199H96.3606C97.4718 51.7826 98.3762 52.6869 98.3762 53.7982V59.966Z" fill="#3A2C60"/>
	<path d="M45.995 31.5765V35.5097H45.3896C45.0181 35.5097 44.7178 35.81 44.7178 36.1816C44.7178 36.5531 45.0181 36.8534 45.3896 36.8534H46.6669H50.684H53.434H57.4518H60.2018H64.219H66.9689H70.9861H72.2633C72.6349 36.8534 72.9352 36.5531 72.9352 36.1816C72.9352 35.81 72.6349 35.5097 72.2633 35.5097H71.6579V23.5154C71.6579 23.1438 71.3576 22.8435 70.9861 22.8435H66.9689C66.5974 22.8435 66.2971 23.1438 66.2971 23.5154V35.5097H64.8908V28.8003C64.8908 28.4288 64.5905 28.1285 64.219 28.1285H60.2018C59.8303 28.1285 59.5299 28.4288 59.5299 28.8003V35.5097H58.1237V26.561C58.1237 26.1894 57.8234 25.8891 57.4518 25.8891H53.434C53.0625 25.8891 52.7621 26.1894 52.7621 26.561V35.5097H51.3566V31.5765C51.3566 31.205 51.0562 30.9047 50.6847 30.9047H46.6669C46.296 30.9047 45.995 31.205 45.995 31.5765ZM67.6415 24.1873H70.3149V35.5097H67.6415V24.1873ZM60.8744 29.4722H63.5477V35.5097H60.8744V29.4722ZM54.1066 27.2329H56.7806V35.5097H54.1066V27.2329ZM47.3388 32.2484H50.0121V35.5097H47.3388V32.2484Z" fill="#3A2C60"/>
	<path d="M48.6758 24.0743C47.5645 24.0743 46.6602 24.9787 46.6602 26.0899C46.6602 27.2006 47.5645 28.1049 48.6758 28.1049C49.7864 28.1049 50.6907 27.2006 50.6907 26.0899C50.6907 25.8212 50.6356 25.5659 50.5396 25.3314L54.5265 21.7846C54.8026 21.927 55.111 22.015 55.4429 22.015C55.9744 22.015 56.4548 21.8047 56.8149 21.4674L60.2267 23.0914C60.2105 23.1935 60.1951 23.2963 60.1951 23.4031C60.1951 24.5144 61.0994 25.4187 62.21 25.4187C63.3213 25.4187 64.2257 24.5144 64.2257 23.4031C64.2257 23.1055 64.1571 22.8253 64.0402 22.5707L68.0688 19.0124C68.3429 19.1522 68.6486 19.2388 68.9772 19.2388C70.0878 19.2388 70.9921 18.3345 70.9921 17.2239C70.9921 16.1126 70.0878 15.2083 68.9772 15.2083C67.8659 15.2083 66.9615 16.1126 66.9615 17.2239C66.9615 17.5155 67.0267 17.7909 67.1389 18.0415L63.103 21.6065C62.8329 21.4715 62.5319 21.3882 62.2094 21.3882C61.6927 21.3882 61.2264 21.5891 60.869 21.9095L57.4296 20.2722C57.4417 20.1821 57.4572 20.0928 57.4572 19.9994C57.4572 18.8888 56.5528 17.9844 55.4416 17.9844C54.3303 17.9844 53.4259 18.8888 53.4259 19.9994C53.4259 20.2883 53.4891 20.5611 53.5993 20.8097L49.6399 24.3316C49.353 24.1731 49.0272 24.0743 48.6758 24.0743ZM48.6758 26.7618C48.3049 26.7618 48.0039 26.4608 48.0039 26.0906C48.0039 25.7197 48.3049 25.4187 48.6758 25.4187C49.046 25.4187 49.347 25.7197 49.347 26.0906C49.347 26.4601 49.0453 26.7618 48.6758 26.7618ZM68.9778 16.5513C69.348 16.5513 69.649 16.8523 69.649 17.2232C69.649 17.5934 69.348 17.8944 68.9778 17.8944C68.607 17.8944 68.306 17.5934 68.306 17.2232C68.306 16.8523 68.6076 16.5513 68.9778 16.5513ZM62.21 22.7312C62.5809 22.7312 62.8819 23.0322 62.8819 23.4024C62.8819 23.7733 62.5809 24.0743 62.21 24.0743C61.8398 24.0743 61.5388 23.7733 61.5388 23.4024C61.5388 23.0329 61.8398 22.7312 62.21 22.7312ZM55.4429 19.3282C55.8138 19.3282 56.1148 19.6292 56.1148 19.9994C56.1148 20.3703 55.8138 20.6713 55.4429 20.6713C55.072 20.6713 54.771 20.3703 54.771 19.9994C54.771 19.6292 55.072 19.3282 55.4429 19.3282Z" fill="#3A2C60"/>
	<path d="M30.2129 51.53C30.2129 56.174 33.1752 60.2758 37.584 61.7345C38.6765 62.0959 39.8133 62.28 40.9629 62.28C46.8902 62.28 51.7129 57.4573 51.7129 51.53C51.7129 45.6027 46.8902 40.78 40.9629 40.78C35.0356 40.78 30.2129 45.6027 30.2129 51.53ZM31.5566 51.53C31.5566 46.5696 35.4166 42.4933 40.291 42.1473V51.4219L37.3757 60.2261C33.8692 58.7822 31.5566 55.3684 31.5566 51.53ZM40.9629 60.9363C40.1815 60.9363 39.4068 60.8388 38.6516 60.6474L40.0344 56.471L41.448 52.2019H50.345C49.9996 57.0763 45.9233 60.9363 40.9629 60.9363ZM50.3456 50.8581H41.6348V42.1473C46.2868 42.4772 50.0157 46.2061 50.3456 50.8581Z" fill="#3A2C60"/>
	<path d="M49.7548 65.3813H32.1719C31.8003 65.3813 31.5 65.6817 31.5 66.0532C31.5 66.4248 31.8003 66.7251 32.1719 66.7251H49.7548C50.1264 66.7251 50.4267 66.4248 50.4267 66.0532C50.4267 65.6817 50.1264 65.3813 49.7548 65.3813Z" fill="#3A2C60"/>
	<path d="M49.7548 69.8848H32.1719C31.8003 69.8848 31.5 70.1851 31.5 70.5566C31.5 70.9282 31.8003 71.2285 32.1719 71.2285H49.7548C50.1264 71.2285 50.4267 70.9282 50.4267 70.5566C50.4267 70.1851 50.1264 69.8848 49.7548 69.8848Z" fill="#3A2C60"/>
	<path d="M49.7548 74.3877H32.1719C31.8003 74.3877 31.5 74.688 31.5 75.0596C31.5 75.4311 31.8003 75.7314 32.1719 75.7314H49.7548C50.1264 75.7314 50.4267 75.4311 50.4267 75.0596C50.4267 74.688 50.1264 74.3877 49.7548 74.3877Z" fill="#3A2C60"/>
</svg>