<svg width="102" height="97" viewBox="0 0 102 97" fill="none" xmlns="http://www.w3.org/2000/svg">
	<circle cx="48.1357" cy="48.1357" r="48.1357" fill="#E8F9FF"/>
	<path d="M96.6359 62.3767V24.5141C96.6359 20.2631 93.177 16.8042 88.9261 16.8042H29.5136C25.2627 16.8042 21.8037 20.2631 21.8037 24.5141V77.0724C21.8037 81.3234 25.2627 84.7823 29.5136 84.7823H66.8638C67.3103 87.485 69.6569 89.5555 72.4844 89.5555H95.8355C98.9798 89.5555 101.538 86.9972 101.538 83.8522V68.0168C101.538 65.1445 99.4017 62.7678 96.6359 62.3767Z" fill="#E6E7E8"/>
	<path d="M64.6786 81.0488V65.2134C64.6786 62.4511 66.918 60.211 69.6809 60.211H93.0321C93.0657 60.211 93.0987 60.2152 93.1323 60.216V21.7099C93.1323 17.8389 89.9944 14.7009 86.1233 14.7009H26.7102C22.8391 14.7009 19.7012 17.8389 19.7012 21.7099V74.269C19.7012 78.14 22.8391 81.278 26.7102 81.278H64.6905C64.687 81.2016 64.6786 81.1266 64.6786 81.0488Z" fill="#D4FBFF"/>
	<path d="M86.1226 14.7009H26.7102C22.8391 14.7009 19.7012 17.8389 19.7012 21.7099V28.0096H93.1316V21.7099C93.1316 17.8389 89.9937 14.7009 86.1226 14.7009Z" fill="#6DC9F7"/>
	<path d="M85.7355 23.7432C86.9928 23.7432 88.012 22.724 88.012 21.4667C88.012 20.2094 86.9928 19.1902 85.7355 19.1902C84.4782 19.1902 83.459 20.2094 83.459 21.4667C83.459 22.724 84.4782 23.7432 85.7355 23.7432Z" fill="#0089EF"/>
	<path d="M78.5529 23.7432C79.8102 23.7432 80.8294 22.724 80.8294 21.4667C80.8294 20.2094 79.8102 19.1902 78.5529 19.1902C77.2956 19.1902 76.2764 20.2094 76.2764 21.4667C76.2764 22.724 77.2956 23.7432 78.5529 23.7432Z" fill="#FA759E"/>
	<path d="M71.3693 23.7432C72.6266 23.7432 73.6458 22.724 73.6458 21.4667C73.6458 20.2094 72.6266 19.1902 71.3693 19.1902C70.112 19.1902 69.0928 20.2094 69.0928 21.4667C69.0928 22.724 70.112 23.7432 71.3693 23.7432Z" fill="white"/>
	<path d="M64.6788 65.2132C64.6788 62.4509 66.9182 60.2108 69.6811 60.2108H77.6076V35.1418C77.6076 34.4577 77.0525 33.9026 76.3684 33.9026H63.1852C61.1827 33.9026 59.2272 34.5124 57.5794 35.6506L56.4166 36.4539L55.6169 35.8574C53.9137 34.5881 51.8467 33.9026 49.723 33.9026H36.4648C35.7807 33.9026 35.2256 34.4577 35.2256 35.1418V68.1962C35.2256 68.8803 35.7807 69.4354 36.4648 69.4354H49.7994C51.8173 69.4354 53.7868 70.0543 55.4416 71.2087L56.4166 71.8885L57.6298 71.0825C59.2468 70.008 61.1456 69.4347 63.087 69.4347H64.6788V65.2132Z" fill="#FA759E"/>
	<path d="M76.3684 33.9026H63.1852C61.1827 33.9026 59.2272 34.5124 57.5794 35.6506L56.4166 36.4539L55.6169 35.8574C53.9137 34.5881 51.8467 33.9026 49.723 33.9026H36.4648C35.7807 33.9026 35.2256 34.4577 35.2256 35.1418V37.2445C35.2256 36.5604 35.7807 36.0053 36.4648 36.0053H49.7223C51.846 36.0053 53.9137 36.6908 55.6162 37.9601L56.4159 38.5566L57.5787 37.7533C59.2265 36.6151 61.182 36.0053 63.1845 36.0053H76.3677C77.0518 36.0053 77.6069 36.5604 77.6069 37.2445V35.1418C77.6076 34.4577 77.0532 33.9026 76.3684 33.9026Z" fill="white"/>
	<path d="M74.7315 42.7192L72.5805 41.3847L70.4287 42.7192V33.9026H74.7315V42.7192Z" fill="#FFD7E5"/>
	<path d="M93.0322 86.051H69.681C66.9188 86.051 64.6787 83.8116 64.6787 81.0487V65.2133C64.6787 62.451 66.9181 60.2109 69.681 60.2109H93.0322C95.7945 60.2109 98.0345 62.4503 98.0345 65.2133V81.0487C98.0338 83.8116 95.7945 86.051 93.0322 86.051Z" fill="#0089EF"/>
	<path d="M19.7009 45.7122C20.0878 45.7122 20.4018 45.3989 20.4018 45.0113V38.9926C20.4018 38.6051 20.0878 38.2917 19.7009 38.2917C19.314 38.2917 19 38.6051 19 38.9926V45.0113C19 45.3982 19.314 45.7122 19.7009 45.7122Z" fill="#3A2C60"/>
	<path d="M61.5368 40.8725H66.9674C67.3543 40.8725 67.6683 40.5592 67.6683 40.1716C67.6683 39.784 67.3543 39.4707 66.9674 39.4707H61.5368C61.1499 39.4707 60.8359 39.784 60.8359 40.1716C60.8359 40.5592 61.1499 40.8725 61.5368 40.8725Z" fill="#3A2C60"/>
	<path d="M61.5368 46.4355H72.3973C72.7842 46.4355 73.0982 46.1222 73.0982 45.7346C73.0982 45.347 72.7842 45.0337 72.3973 45.0337H61.5368C61.1499 45.0337 60.8359 45.347 60.8359 45.7346C60.8359 46.1222 61.1499 46.4355 61.5368 46.4355Z" fill="#3A2C60"/>
	<path d="M61.5368 51.9977H72.3973C72.7842 51.9977 73.0982 51.6844 73.0982 51.2968C73.0982 50.9092 72.7842 50.5959 72.3973 50.5959H61.5368C61.1499 50.5959 60.8359 50.9092 60.8359 51.2968C60.8359 51.6844 61.1499 51.9977 61.5368 51.9977Z" fill="#3A2C60"/>
	<path d="M61.5368 57.561H72.3973C72.7842 57.561 73.0982 57.2477 73.0982 56.8601C73.0982 56.4725 72.7842 56.1592 72.3973 56.1592H61.5368C61.1499 56.1592 60.8359 56.4725 60.8359 56.8601C60.8359 57.2477 61.1499 57.561 61.5368 57.561Z" fill="#3A2C60"/>
	<path d="M51.5226 39.4707H40.6628C40.2759 39.4707 39.9619 39.784 39.9619 40.1716C39.9619 40.5592 40.2759 40.8725 40.6628 40.8725H51.5233C51.9101 40.8725 52.2242 40.5592 52.2242 40.1716C52.2242 39.784 51.9101 39.4707 51.5226 39.4707Z" fill="#3A2C60"/>
	<path d="M51.5226 45.0337H40.6628C40.2759 45.0337 39.9619 45.347 39.9619 45.7346C39.9619 46.1222 40.2759 46.4355 40.6628 46.4355H51.5233C51.9101 46.4355 52.2242 46.1222 52.2242 45.7346C52.2242 45.347 51.9101 45.0337 51.5226 45.0337Z" fill="#3A2C60"/>
	<path d="M51.5226 50.5959H40.6628C40.2759 50.5959 39.9619 50.9092 39.9619 51.2968C39.9619 51.6844 40.2759 51.9977 40.6628 51.9977H51.5233C51.9101 51.9977 52.2242 51.6844 52.2242 51.2968C52.2242 50.9092 51.9101 50.5959 51.5226 50.5959Z" fill="#3A2C60"/>
	<path d="M51.5226 56.1592H40.6628C40.2759 56.1592 39.9619 56.4725 39.9619 56.8601C39.9619 57.2477 40.2759 57.561 40.6628 57.561H51.5233C51.9101 57.561 52.2242 57.2477 52.2242 56.8601C52.2242 56.4725 51.9101 56.1592 51.5226 56.1592Z" fill="#3A2C60"/>
	<path d="M51.5226 61.7212H40.6628C40.2759 61.7212 39.9619 62.0345 39.9619 62.4221C39.9619 62.8097 40.2759 63.123 40.6628 63.123H51.5233C51.9101 63.123 52.2242 62.8097 52.2242 62.4221C52.2242 62.0345 51.9101 61.7212 51.5226 61.7212Z" fill="#3A2C60"/>
	<path d="M93.8322 59.5732V21.7099C93.8322 17.4589 90.3733 14 86.1223 14H26.7099C22.4589 14 19 17.4589 19 21.7099V36.2297C19 36.6173 19.314 36.9306 19.7009 36.9306C20.0878 36.9306 20.4018 36.6173 20.4018 36.2297V28.7112H92.4304V59.5101H78.308V35.1426C78.308 34.0731 77.4375 33.2018 76.3679 33.2018H74.7313H70.4285H63.1847C61.0301 33.2018 58.9534 33.8495 57.1808 35.0746L56.4315 35.5919L56.0355 35.2961C54.2244 33.9455 51.9815 33.2018 49.7225 33.2018H36.4643C35.3947 33.2018 34.5242 34.0724 34.5242 35.1426V68.1964C34.5242 69.2659 35.3947 70.1371 36.4643 70.1371H49.7989C51.6829 70.1371 53.4955 70.7063 55.041 71.785L56.0159 72.4648C56.1358 72.5489 56.2766 72.591 56.4168 72.591C56.5521 72.591 56.6867 72.5517 56.8044 72.4739L58.0177 71.6686C59.5246 70.667 61.2776 70.1378 63.0873 70.1378H63.9781V80.5784H26.7099C23.232 80.5784 20.4018 77.7489 20.4018 74.2704V48.1653C20.4018 47.7777 20.0878 47.4644 19.7009 47.4644C19.314 47.4644 19 47.7777 19 48.1653V74.2696C19 78.5206 22.4589 81.9795 26.7099 81.9795H64.0601C64.5066 84.6822 66.8532 86.7527 69.6806 86.7527H93.0318C96.1767 86.7527 98.735 84.1944 98.735 81.0494V65.2133C98.7343 62.341 96.598 59.965 93.8322 59.5732ZM20.4018 27.3094V21.7106C20.4018 18.232 23.232 15.4025 26.7099 15.4025H86.1223C89.6002 15.4025 92.4304 18.232 92.4304 21.7106V27.3094H20.4018ZM74.0304 34.6036V41.4598L72.9496 40.7891C72.7232 40.6482 72.4373 40.6475 72.2102 40.7891L71.1294 41.4598V34.6036H74.0304ZM49.7989 68.7346H36.4643C36.1678 68.7346 35.926 68.4928 35.926 68.1957V35.1426C35.926 34.8455 36.1671 34.6036 36.4643 34.6036H49.7225C51.6822 34.6036 53.6265 35.2492 55.198 36.4204L55.7159 36.8066V70.5528C53.9616 69.3662 51.9205 68.7346 49.7989 68.7346ZM63.0866 68.7346C61 68.7346 58.9793 69.3444 57.2418 70.4995L57.117 70.5822V36.822L57.9777 36.2283C59.5155 35.1651 61.3168 34.6043 63.1854 34.6043H69.7283V42.7201C69.7283 42.9745 69.8664 43.2086 70.0886 43.3326C70.1944 43.3915 70.3121 43.421 70.4292 43.421C70.5575 43.421 70.6857 43.3859 70.7986 43.3158L72.5803 42.2105L74.3619 43.3158C74.5778 43.4504 74.8498 43.4553 75.0727 43.3326C75.2948 43.2086 75.4329 42.9745 75.4329 42.7201V34.6036H76.3686C76.6651 34.6036 76.9069 34.8455 76.9069 35.1426V59.5108H69.6806C67.852 59.5108 66.2252 60.3799 65.1816 61.7221H61.5376C61.1507 61.7221 60.8367 62.0354 60.8367 62.423C60.8367 62.8106 61.1507 63.1239 61.5376 63.1239H64.3797C64.1232 63.7723 63.9781 64.4753 63.9781 65.2133V68.7346H63.0866ZM97.3325 81.0494C97.3325 83.4213 95.4029 85.3509 93.0311 85.3509H69.6806C67.3088 85.3509 65.3792 83.4213 65.3792 81.0494V65.2133C65.3792 62.8415 67.3088 60.9119 69.6806 60.9119H93.0318C95.4036 60.9119 97.3332 62.8415 97.3332 65.2133V81.0494H97.3325Z" fill="#3A2C60"/>
	<path d="M89.9135 66.7206C89.7811 66.5475 89.5757 66.4458 89.3577 66.4458H74.6991L73.9442 63.6478C73.8615 63.3416 73.5847 63.1299 73.2679 63.1299H70.2946C69.9078 63.1299 69.5938 63.4432 69.5938 63.8308C69.5938 64.2184 69.9078 64.5317 70.2946 64.5317H72.731L76.321 77.8432C76.4037 78.1495 76.6805 78.3611 76.9973 78.3611H86.2037C86.5906 78.3611 86.9046 78.0478 86.9046 77.6602C86.9046 77.2726 86.5906 76.9593 86.2037 76.9593H77.5342L77.188 75.6746H87.255C87.5718 75.6746 87.8501 75.4615 87.9321 75.1559L90.0348 67.329C90.0909 67.1187 90.0467 66.8937 89.9135 66.7206ZM87.7344 70.4865H84.8558L85.092 67.8476H88.443L87.7344 70.4865ZM80.0105 70.4865L79.7743 67.8476H83.6846L83.4484 70.4865H80.0105ZM83.323 71.8883L83.1092 74.2728H80.3491L80.1353 71.8883H83.323ZM78.3669 67.8483L78.6031 70.4872H75.7883L75.0769 67.8483H78.3669ZM76.1668 71.8883H78.7286L78.9423 74.2728H76.8095L76.1668 71.8883ZM86.7174 74.2735H84.5166L84.7304 71.889H87.358L86.7174 74.2735Z" fill="white"/>
	<path d="M78.9172 78.6538C77.9577 78.6538 77.1797 79.4318 77.1797 80.3913C77.1797 81.3509 77.9577 82.1289 78.9172 82.1289C79.8768 82.1289 80.6547 81.3509 80.6547 80.3913C80.6547 79.4318 79.8768 78.6538 78.9172 78.6538Z" fill="white"/>
	<path d="M84.467 78.6538C83.5075 78.6538 82.7295 79.4318 82.7295 80.3913C82.7295 81.3509 83.5075 82.1289 84.467 82.1289C85.4266 82.1289 86.2046 81.3509 86.2046 80.3913C86.2046 79.4318 85.4266 78.6538 84.467 78.6538Z" fill="white"/>
</svg>